<svg aria-hidden="true" style="position: absolute; width: 0; height: 0; overflow: hidden;" version="1.1" xmlns="http://www.w3.org/2000/svg" xmlns:xlink="http://www.w3.org/1999/xlink">
<defs>
<symbol id="icon-whatsapp" viewBox="0 0 32 32">
<path d="M16 0c-8.823 0-16 7.177-16 16 0 3.010 0.836 5.932 2.423 8.469-0.632 2.214-1.774 6.402-1.786 6.446-0.059 0.217 0.004 0.448 0.166 0.604s0.396 0.211 0.609 0.146l6.342-1.951c2.484 1.497 5.329 2.286 8.246 2.286 8.823 0 16-7.177 16-16s-7.177-16-16-16zM16 30.769c-2.781 0-5.49-0.777-7.834-2.247-0.099-0.062-0.213-0.094-0.327-0.094-0.061 0-0.122 0.009-0.181 0.027l-5.538 1.705c0.407-1.485 1.138-4.141 1.562-5.618 0.049-0.171 0.022-0.356-0.075-0.505-1.554-2.392-2.376-5.171-2.376-8.037 0-8.143 6.626-14.769 14.769-14.769s14.769 6.626 14.769 14.769-6.626 14.769-14.769 14.769z"></path>
<path d="M26.452 19.77c-1.136-0.631-2.103-1.263-2.809-1.725-0.539-0.352-0.929-0.606-1.214-0.75-0.798-0.398-1.403-0.117-1.633 0.116-0.029 0.029-0.055 0.060-0.077 0.094-0.829 1.244-1.911 2.433-2.228 2.497-0.366-0.057-2.080-1.031-3.783-2.45-1.739-1.449-2.833-2.837-2.994-3.782 1.116-1.148 1.518-1.871 1.518-2.693 0-0.847-1.977-4.385-2.334-4.743-0.359-0.358-1.167-0.414-2.402-0.168-0.119 0.024-0.228 0.082-0.314 0.168-0.15 0.15-3.649 3.717-1.986 8.041 1.825 4.745 6.51 10.261 12.483 11.157 0.679 0.102 1.315 0.152 1.911 0.152 3.514 0 5.588-1.768 6.172-5.275 0.044-0.257-0.080-0.513-0.308-0.639zM18.86 24.314c-6.316-0.947-10.295-7.205-11.517-10.382-1.212-3.151 1.023-5.96 1.585-6.595 0.457-0.078 0.937-0.11 1.138-0.079 0.419 0.583 1.87 3.324 1.934 3.818 0 0.323-0.105 0.773-1.358 2.026-0.116 0.115-0.18 0.271-0.18 0.435 0 3.222 6.796 7.692 8 7.692 1.047 0 2.412-1.759 3.189-2.906 0.045 0.002 0.121 0.017 0.228 0.071 0.222 0.111 0.606 0.362 1.091 0.679 0.641 0.419 1.493 0.975 2.498 1.552-0.457 2.197-1.733 4.419-6.608 3.687z"></path>
</symbol>
<symbol id="icon-search" viewBox="0 0 32 32">
<path d="M31.238 30.977l-8.977-9.336c2.29-2.296 3.708-5.462 3.708-8.954 0-6.996-5.691-12.687-12.687-12.687s-12.687 5.691-12.687 12.687 5.691 12.687 12.687 12.687c3.071 0 5.889-1.098 8.086-2.919l8.999 9.359c0.118 0.124 0.277 0.185 0.436 0.185 0.151 0 0.301-0.056 0.419-0.169 0.24-0.231 0.248-0.614 0.017-0.854zM13.281 24.166c-6.33 0-11.479-5.149-11.479-11.479s5.149-11.479 11.479-11.479 11.479 5.149 11.479 11.479-5.15 11.479-11.479 11.479z"></path>
</symbol>
<symbol id="icon-eye" viewBox="0 0 32 32">
<path d="M2.125 16l1.638 1.637c6.75 6.75 17.731 6.75 24.481 0l1.631-1.637-1.637-1.637c-6.75-6.75-17.731-6.75-24.481 0l-1.631 1.637zM16 23.887c-4.738 0-9.475-1.806-13.081-5.412l-2.056-2.056c-0.231-0.231-0.231-0.606 0-0.844l2.056-2.056c7.213-7.213 18.95-7.213 26.163 0l2.056 2.056c0.231 0.231 0.231 0.606 0 0.844l-2.056 2.056c-3.606 3.606-8.344 5.413-13.081 5.413z"></path>
<path d="M16 11.469c-2.5 0-4.531 2.031-4.531 4.531s2.031 4.531 4.531 4.531c2.5 0 4.531-2.031 4.531-4.531s-2.031-4.531-4.531-4.531zM16 21.719c-3.156 0-5.719-2.569-5.719-5.719 0-3.156 2.569-5.719 5.719-5.719s5.719 2.569 5.719 5.719c0 3.156-2.563 5.719-5.719 5.719z"></path>
</symbol>
<symbol id="icon-facebook" viewBox="0 0 32 32">
<path  style="fill: var(--color1, #828282)" d="M16-0.034c-8.841 0-16.035 7.192-16.035 16.034s7.194 16.034 16.035 16.034 16.035-7.192 16.035-16.034-7.194-16.034-16.035-16.034zM16 30.966c-8.252 0-14.965-6.714-14.965-14.966s6.713-14.966 14.965-14.966 14.965 6.714 14.965 14.966-6.713 14.966-14.965 14.966z"></path>
<path  style="fill: var(--color1, #828282)" d="M19.5 7h-2.668c-3.398-0.034-3.832 2.069-3.832 4.345v1.655h-1.5c-0.295-0.034-0.535 0.205-0.5 0.5v3c-0.035 0.295 0.205 0.534 0.5 0.5h1.5v7.5c-0.031 0.295 0.208 0.534 0.503 0.5h3.055c0.295 0.034 0.534-0.205 0.44-0.5l0.002-7.5h2.5c0.295 0.034 0.535-0.205 0.5-0.5v-3c0.035-0.295-0.205-0.534-0.5-0.5h-2.503l0.003-1.5c0.097-0.639 0.097-0.535 0.69-0.5h1.789c0.139-0.031 0.287-0.014 0.391-0.115s0.164-0.239 0.129-0.385v-3c0.036-0.295-0.204-0.534-0.499-0.5zM18.965 9.944l-1.254-0.048c-1.553 0-1.683 0.843-1.683 1.706l-0.004 1.896c0 0.142 0.056 0.278 0.156 0.379s0.236 0.156 0.378 0.156h2.442v1.932h-2.44c-0.295 0-0.534 0.239-0.535 0.534l-0.001 7.501h-2.024v-7.5c0-0.295-0.201-0.534-0.497-0.534h-1.503v-1.932h1.503c0.142 0 0.278-0.056 0.378-0.156s0.118-0.237 0.118-0.379v-2.155c0-2.242 0.453-3.31 2.832-3.31h2.133v1.91z"></path>
</symbol>
</defs>
</svg>
